<svg xmlns="http://www.w3.org/2000/svg" xmlns:xlink="http://www.w3.org/1999/xlink" version="1.2" baseProfile="tiny" x="0px" y="0px" viewBox="0 0 100 125" xml:space="preserve"><rect x="47.5" y="55" width="5" height="5"/><rect x="47.5" y="45" width="5" height="5"/><rect x="47.5" y="35" width="5" height="5"/><rect x="47.5" y="25" width="5" height="5"/><rect x="47.5" y="65" width="5" height="5"/><rect x="47.5" y="75" width="5" height="5"/><rect x="47.5" y="85" width="5" height="5"/><path d="M10,87.5l30-30l-30-30V87.5z M17.5,45.607L29.393,57.5L17.5,69.393V45.607z"/><path d="M71.731,25H65v5h15V15h-5v6.211C60.421,7.96,37.774,8.371,23.698,22.448l3.535,3.535C39.45,13.77,59.114,13.445,71.731,25z"/><path d="M90,87.5v-60l-30,30L90,87.5z M85,75.429L67.071,57.5L85,39.571V75.429z"/><text x="0" y="115" fill="#000000" font-size="5px" font-weight="bold" font-family="'Helvetica Neue', Helvetica, Arial-Unicode, Arial, Sans-serif">Created by Arthur Shlain</text><text x="0" y="120" fill="#000000" font-size="5px" font-weight="bold" font-family="'Helvetica Neue', Helvetica, Arial-Unicode, Arial, Sans-serif">from the Noun Project</text></svg>